<svg width="94" height="94" viewBox="0 0 94 94" fill="none" xmlns="http://www.w3.org/2000/svg">
<path d="M47 90.0833C63.2232 90.0833 76.375 76.9316 76.375 60.7083C76.375 57.3185 75.473 54.0625 74.4167 51.0326C67.8888 57.483 62.9279 60.7083 59.5333 60.7083C75.182 33.2917 66.5833 21.5417 43.0833 5.875C45.0417 25.4564 32.1325 34.3639 26.8753 39.31C21.1808 44.6676 17.625 52.2726 17.625 60.7083C17.625 76.9316 30.7766 90.0833 47 90.0833ZM49.7785 20.5037C62.4751 31.2757 62.5359 39.6457 52.7301 56.8254C49.7495 62.0474 53.5205 68.5417 59.5333 68.5417C62.2296 68.5417 64.9544 67.7552 67.8324 66.2116C65.4001 75.4428 56.9949 82.25 47 82.25C35.1029 82.25 25.4583 72.6056 25.4583 60.7083C25.4583 54.6798 27.9368 49.0664 32.243 45.015C32.7365 44.5509 35.2402 42.3317 35.347 42.2358C37.0071 40.7416 38.3747 39.4263 39.7264 37.979C44.5454 32.819 48.007 27.0889 49.7785 20.5037Z" fill="white"/>
</svg>
