<svg width="97" height="92" viewBox="0 0 97 92" fill="none" xmlns="http://www.w3.org/2000/svg">
<path d="M25.4116 22.3836L29.2749 27.618C22.326 32.2401 17.7834 39.8948 17.7834 48.5558C17.7834 62.6698 29.8468 74.1113 44.7278 74.1113C59.6089 74.1113 71.6722 62.6698 71.6722 48.5558C71.6722 39.8948 67.1294 32.2401 60.1808 27.618L64.0439 22.3836C72.7301 28.1611 78.4084 37.7295 78.4084 48.5558C78.4084 66.1981 63.3289 80.5002 44.7278 80.5002C26.1265 80.5002 11.0472 66.1981 11.0472 48.5558C11.0472 37.7295 16.7256 28.1611 25.4116 22.3836ZM41.3597 48.5558V16.6113H48.0959V48.5558H41.3597Z" fill="url(#paint0_linear_10_18)"/>
<defs>
<linearGradient id="paint0_linear_10_18" x1="11.1146" y1="48.8751" x2="78.8125" y2="48.8751" gradientUnits="userSpaceOnUse">
<stop stop-color="#DE29AB"/>
<stop offset="1" stop-color="#D21871"/>
</linearGradient>
</defs>
</svg>
