<svg width="97" height="92" viewBox="0 0 97 92" fill="none" xmlns="http://www.w3.org/2000/svg">
<path d="M25.4115 22.3836L29.2747 27.618C22.3259 32.2401 17.7832 39.8948 17.7832 48.5558C17.7832 62.6698 29.8467 74.1113 44.7277 74.1113C59.6088 74.1113 71.6721 62.6698 71.6721 48.5558C71.6721 39.8948 67.1293 32.2401 60.1806 27.618L64.0438 22.3836C72.73 28.1611 78.4082 37.7295 78.4082 48.5558C78.4082 66.1981 63.3288 80.5002 44.7277 80.5002C26.1264 80.5002 11.0471 66.1981 11.0471 48.5558C11.0471 37.7295 16.7255 28.1611 25.4115 22.3836ZM41.3596 48.5558V16.6113H48.0957V48.5558H41.3596Z" fill="white"/>
</svg>
