<svg width="116" height="111" viewBox="0 0 116 111" fill="none" xmlns="http://www.w3.org/2000/svg">
<path d="M18.2848 13.0702L58 4.625L97.715 13.0702C99.9268 13.5404 101.5 15.4173 101.5 17.585V63.7737C101.5 73.0519 96.6541 81.7164 88.5863 86.8631L58 106.375L27.4137 86.8631C19.3459 81.7164 14.5 73.0519 14.5 63.7737V17.585C14.5 15.4173 16.0734 13.5404 18.2848 13.0702ZM24.1667 21.2951V63.7737C24.1667 69.9591 27.3973 75.7353 32.7758 79.1666L58 95.2579L83.2242 79.1666C88.6027 75.7353 91.8333 69.9591 91.8333 63.7737V21.2951L58 14.1007L24.1667 21.2951ZM53.1667 46.25V32.375H62.8333V46.25H77.3333V55.5H62.8333V69.375H53.1667V55.5H38.6667V46.25H53.1667Z" fill="white"/>
</svg>
