<svg width="91" height="87" viewBox="0 0 91 87" fill="none" xmlns="http://www.w3.org/2000/svg">
<path d="M14.3441 10.2442L45.5 3.625L76.6557 10.2442C78.3908 10.6128 79.625 12.0838 79.625 13.7829V49.9848C79.625 57.2569 75.8235 64.048 69.4944 68.0818L45.5 83.375L21.5056 68.0818C15.1766 64.048 11.375 57.2569 11.375 49.9848V13.7829C11.375 12.0838 12.6093 10.6128 14.3441 10.2442ZM18.9583 16.6907V49.9848C18.9583 54.8328 21.4927 59.3601 25.7121 62.0495L45.5 74.6616L65.2879 62.0495C69.5073 59.3601 72.0417 54.8328 72.0417 49.9848V16.6907L45.5 11.0519L18.9583 16.6907ZM41.7083 36.25V25.375H49.2917V36.25H60.6667V43.5H49.2917V54.375H41.7083V43.5H30.3333V36.25H41.7083Z" fill="url(#paint0_linear_19_48)"/>
<defs>
<linearGradient id="paint0_linear_19_48" x1="45.5" y1="3.625" x2="45.5" y2="83.375" gradientUnits="userSpaceOnUse">
<stop stop-color="#41FFF4"/>
<stop offset="1" stop-color="#041C71"/>
</linearGradient>
</defs>
</svg>
