<svg width="95" height="98" viewBox="0 0 95 98" fill="none" xmlns="http://www.w3.org/2000/svg">
<g clip-path="url(#clip0_10_10)">
<path d="M-2.38419e-05 38.1366C12.8361 27.5048 29.178 21.1372 46.9721 21.1372C64.766 21.1372 81.108 27.5048 93.9444 38.1366L88.725 44.7547C77.315 35.3042 62.7891 29.6442 46.9721 29.6442C31.1552 29.6442 16.629 35.3042 5.2191 44.7547L-2.38419e-05 38.1366ZM13.0478 54.6818C22.3183 47.0034 34.1208 42.4046 46.9721 42.4046C59.8235 42.4046 71.6259 47.0034 80.8966 54.6818L75.6771 61.3002C67.8329 54.803 57.8463 50.9115 46.9721 50.9115C36.098 50.9115 26.1112 54.803 18.2669 61.3002L13.0478 54.6818ZM26.0956 71.2274C31.8005 66.5018 39.0636 63.6719 46.9721 63.6719C54.8806 63.6719 62.1438 66.5018 67.8487 71.2274L62.6297 77.8453C58.3509 74.3014 52.9034 72.1789 46.9721 72.1789C41.0408 72.1789 35.5934 74.3014 31.3147 77.8453L26.0956 71.2274ZM39.1433 87.7725C41.2829 86.0005 44.0064 84.9393 46.9721 84.9393C49.9377 84.9393 52.6613 86.0005 54.8009 87.7725L46.9721 97.6997L39.1433 87.7725Z" fill="url(#paint0_linear_10_10)"/>
</g>
<defs>
<linearGradient id="paint0_linear_10_10" x1="46.9722" y1="21.1372" x2="46.9722" y2="97.6997" gradientUnits="userSpaceOnUse">
<stop stop-color="#32DCE7"/>
<stop offset="0.648543" stop-color="#4656EC"/>
</linearGradient>
<clipPath id="clip0_10_10">
<rect width="95" height="98" fill="white"/>
</clipPath>
</defs>
</svg>
