<svg width="85" height="88" viewBox="0 0 85 88" fill="none" xmlns="http://www.w3.org/2000/svg">
<g clip-path="url(#clip0_73_18)">
<path d="M0 34.245C11.4849 24.6981 26.1067 18.9802 42.0277 18.9802C57.9485 18.9802 72.5703 24.6981 84.0556 34.245L79.3855 40.1878C69.1766 31.7016 56.1798 26.6191 42.0277 26.6191C27.8757 26.6191 14.8786 31.7016 4.66974 40.1878L0 34.245ZM11.6743 49.1019C19.969 42.207 30.5292 38.0774 42.0277 38.0774C53.5263 38.0774 64.0863 42.207 72.3812 49.1019L67.7111 55.0449C60.6927 49.2107 51.7572 45.7163 42.0277 45.7163C32.2982 45.7163 23.3627 49.2107 16.3441 55.0449L11.6743 49.1019ZM23.3487 63.9591C28.4531 59.7157 34.9516 57.1747 42.0277 57.1747C49.1037 57.1747 55.6023 59.7157 60.7068 63.9591L56.0371 69.9018C52.2087 66.7195 47.3346 64.8136 42.0277 64.8136C36.7207 64.8136 31.8468 66.7195 28.0184 69.9018L23.3487 63.9591ZM35.023 78.816C36.9374 77.2248 39.3742 76.2719 42.0277 76.2719C44.6812 76.2719 47.118 77.2248 49.0324 78.816L42.0277 87.7302L35.023 78.816Z" fill="white"/>
</g>
<defs>
<clipPath id="clip0_73_18">
<rect width="85" height="88" fill="white"/>
</clipPath>
</defs>
</svg>
