<svg width="94" height="90" viewBox="0 0 94 90" fill="none" xmlns="http://www.w3.org/2000/svg">
<path d="M41.1249 63.75H15.6666V56.25H41.1249C48.6958 56.25 54.8333 62.1263 54.8333 69.375C54.8333 76.6238 48.6958 82.5 41.1249 82.5C35.2482 82.5 30.2353 78.9596 28.2859 73.9849L35.6225 71.3505C36.4579 73.4828 38.6063 75 41.1249 75C44.3695 75 46.9999 72.4815 46.9999 69.375C46.9999 66.2685 44.3695 63.75 41.1249 63.75ZM19.5833 41.25H72.4583C80.0292 41.25 86.1666 47.1263 86.1666 54.375C86.1666 61.6238 80.0292 67.5 72.4583 67.5C66.5817 67.5 61.5687 63.9596 59.6194 58.9849L66.9557 56.3505C67.7912 58.4828 69.9398 60 72.4583 60C75.7028 60 78.3333 57.4815 78.3333 54.375C78.3333 51.2685 75.7028 48.75 72.4583 48.75H19.5833C13.0939 48.75 7.83325 43.7134 7.83325 37.5C7.83325 31.2868 13.0939 26.25 19.5833 26.25H52.8749C56.1195 26.25 58.7499 23.7316 58.7499 20.625C58.7499 17.5184 56.1195 15 52.8749 15C50.3565 15 48.2078 16.5174 47.3724 18.6494L40.0361 16.0152C41.9854 11.0405 46.9984 7.5 52.8749 7.5C60.4458 7.5 66.5833 13.3763 66.5833 20.625C66.5833 27.8738 60.4458 33.75 52.8749 33.75H19.5833C17.4202 33.75 15.6666 35.429 15.6666 37.5C15.6666 39.5711 17.4202 41.25 19.5833 41.25Z" fill="white"/>
</svg>
