<svg width="94" height="90" viewBox="0 0 94 90" fill="none" xmlns="http://www.w3.org/2000/svg">
<path d="M41.125 63.75H15.6666V56.25H41.125C48.6959 56.25 54.8333 62.1263 54.8333 69.375C54.8333 76.6238 48.6959 82.5 41.125 82.5C35.2483 82.5 30.2353 78.9596 28.286 73.9849L35.6226 71.3505C36.458 73.4828 38.6064 75 41.125 75C44.3695 75 47 72.4815 47 69.375C47 66.2685 44.3695 63.75 41.125 63.75ZM19.5833 41.25H72.4583C80.0292 41.25 86.1666 47.1263 86.1666 54.375C86.1666 61.6238 80.0292 67.5 72.4583 67.5C66.5817 67.5 61.5688 63.9596 59.6195 58.9849L66.9558 56.3505C67.7912 58.4828 69.9399 60 72.4583 60C75.7029 60 78.3333 57.4815 78.3333 54.375C78.3333 51.2685 75.7029 48.75 72.4583 48.75H19.5833C13.094 48.75 7.83331 43.7134 7.83331 37.5C7.83331 31.2868 13.094 26.25 19.5833 26.25H52.875C56.1195 26.25 58.75 23.7316 58.75 20.625C58.75 17.5184 56.1195 15 52.875 15C50.3566 15 48.2079 16.5174 47.3725 18.6494L40.0361 16.0152C41.9855 11.0405 46.9984 7.5 52.875 7.5C60.4459 7.5 66.5833 13.3763 66.5833 20.625C66.5833 27.8738 60.4459 33.75 52.875 33.75H19.5833C17.4202 33.75 15.6666 35.429 15.6666 37.5C15.6666 39.5711 17.4202 41.25 19.5833 41.25Z" fill="url(#paint0_linear_10_31)"/>
<defs>
<linearGradient id="paint0_linear_10_31" x1="86" y1="45.0001" x2="14" y2="45.0001" gradientUnits="userSpaceOnUse">
<stop stop-color="white"/>
<stop offset="1" stop-color="#535252"/>
</linearGradient>
</defs>
</svg>
